<svg height="512pt" viewBox="0 0 512 512" width="512pt" xmlns="http://www.w3.org/2000/svg" xmlns:xlink="http://www.w3.org/1999/xlink"><linearGradient id="a" gradientTransform="matrix(.670906 0 0 -.670906 0 495.66887)" gradientUnits="userSpaceOnUse" x1="8.2515" x2="932.7322" y1="357.2318" y2="357.2318"><stop offset="0" stop-color="#e93e3a"/><stop offset=".354" stop-color="#ed683c"/><stop offset=".705" stop-color="#f3903f"/><stop offset="1" stop-color="#fdc70c"/></linearGradient><g fill="url(#a)"><path d="m256 0c-141.386719 0-256 114.613281-256 256 0 141.382812 114.613281 256 256 256 141.382812 0 256-114.617188 256-256-.167969-141.316406-114.683594-255.832031-256-256zm0 480c-123.710938 0-224-100.289062-224-224s100.289062-224 224-224 224 100.289062 224 224c-.132812 123.65625-100.34375 223.867188-224 224zm0 0"/><path d="m380.449219 131.550781c-6.25-6.246093-16.378907-6.246093-22.625 0l-101.824219 101.824219-101.824219-101.824219c-6.136719-6.355469-16.269531-6.53125-22.625-.394531-6.355469 6.140625-6.53125 16.269531-.394531 22.625.128906.132812.261719.265625.394531.394531l101.824219 101.824219-101.824219 101.824219c-6.355469 6.136719-6.53125 16.269531-.394531 22.625 6.140625 6.355469 16.269531 6.53125 22.625.390625.132812-.128906.265625-.257813.394531-.390625l101.824219-101.824219 101.824219 101.824219c6.355469 6.136719 16.484375 5.960937 22.625-.394531 5.988281-6.203126 5.988281-16.03125 0-22.230469l-101.824219-101.824219 101.824219-101.824219c6.246093-6.246093 6.246093-16.375 0-22.625zm0 0"/></g></svg>