<svg width="44" height="44" xmlns="http://www.w3.org/2000/svg">
 <!-- Created with Method Draw - http://github.com/duopixel/Method-Draw/ -->

 <g>
  <title>background</title>
  <rect fill="#fff" id="canvas_background" height="46" width="46" y="-1" x="-1"/>
  <g display="none" overflow="visible" y="0" x="0" height="100%" width="100%" id="canvasGrid">
   <rect fill="url(#gridpattern)" stroke-width="0" y="0" x="0" height="100%" width="100%"/>
  </g>
 </g>
 <g>
  <title>Layer 1</title>
  <linearGradient y2="0.5" y1="0.5" x2="1.197749" x1="0.004438" id="svg_4">
   <stop stop-color="#e93e3a" offset="0"/>
   <stop stop-color="#ed683c" offset="0.354"/>
   <stop stop-color="#f3903f" offset="0.705"/>
   <stop stop-color="#fdc70c" offset="1"/>
  </linearGradient>
  <g stroke="null" id="svg_9">
   <g stroke="null" transform="matrix(0.08569659007064873,0,0,0.08596597999758245,-0.8830053029704175,-0.6110634808095483) " id="svg_6" fill="url(#svg_4)">
    <path stroke="null" id="svg_7" d="m267.023499,7.825623c-141.38672,0 -256,114.61328 -256,256c0,141.38281 114.61328,256 256,256c141.38281,0 256,-114.61719 256,-256c-0.16797,-141.31641 -114.68359,-255.83203 -256,-256zm0,480c-123.71094,0 -224,-100.28906 -224,-224s100.28906,-224 224,-224s224,100.28906 224,224c-0.13281,123.65625 -100.34375,223.86719 -224,224zm0,0"/>
    <path stroke="null" id="svg_8" d="m427.023499,247.825623l-144,0l0,-144c0,-8.83594 -7.16406,-16 -16,-16s-16,7.16406 -16,16l0,144l-144,0c-8.83594,0 -16,7.16406 -16,16s7.16406,16 16,16l144,0l0,144c0,8.83594 7.16406,16 16,16s16,-7.16406 16,-16l0,-144l144,0c8.83594,0 16,-7.16406 16,-16s-7.16406,-16 -16,-16zm0,0"/>
   </g>
  </g>
  <ellipse stroke="#000" ry="16.827586" rx="17.172414" id="svg_10" cy="21.241379" cx="20.965518" stroke-width="0" fill="#fff"/>
  <linearGradient y2="0.5" y1="0.5" x2="1.484997" x1="0.022755" id="svg_15">
   <stop stop-color="#e93e3a" offset="0"/>
   <stop stop-color="#ed683c" offset="0.354"/>
   <stop stop-color="#f3903f" offset="0.705"/>
   <stop stop-color="#fdc70c" offset="1"/>
  </linearGradient>
  <g stroke="null" transform="rotate(-33.73585891723633 22.551723480224595,22.275861740112305) " id="svg_18">
   <path stroke="null" id="svg_17" fill="url(#svg_15)" d="m24.545909,8.693025l-3.988369,0c-1.101348,0 -1.994306,0.760221 -1.994306,1.697855l0,19.524501c0,0.131816 0.035787,0.261766 0.104682,0.379489l2.99146,5.093357c0.245636,0.419697 0.844269,0.59027 1.337003,0.381147c0.194026,-0.082281 0.351049,-0.215963 0.447697,-0.381147l2.99146,-5.093357c0.068895,-0.117722 0.104681,-0.247673 0.104681,-0.379489l0,-19.524501c0,-0.937633 -0.892958,-1.697855 -1.994306,-1.697855zm-3.988369,1.697855l3.988369,0l0,3.395502l-3.988369,0l0,-3.395502zm3.988369,5.093357l0,12.733496l-3.988369,0l0,-12.733496l3.988369,0zm-1.994063,17.626435l-1.876722,-3.195291l3.753201,0l-1.876479,3.195291zm0,0"/>
  </g>
 </g>
</svg>