<svg height="511pt" viewBox="1 -39 511.99866 511" width="511pt" xmlns="http://www.w3.org/2000/svg" xmlns:xlink="http://www.w3.org/1999/xlink"><linearGradient id="a" gradientTransform="matrix(.670906 0 0 -.670906 0 472.168077)" gradientUnits="userSpaceOnUse" x1="1.1209" x2="915.1559" y1="381.0801" y2="381.0801"><stop offset="0" stop-color="#e93e3a"/><stop offset=".354" stop-color="#ed683c"/><stop offset=".705" stop-color="#f3903f"/><stop offset="1" stop-color="#fdc70c"/></linearGradient><path d="m464 .5h-416c-26.507812 0-48 21.488281-48 48v256c0 26.507812 21.492188 48 48 48h160v48h-32c-8.835938 0-16 7.164062-16 16s7.164062 16 16 16h160c8.835938 0 16-7.164062 16-16s-7.164062-16-16-16h-32v-48h160c26.507812 0 48-21.492188 48-48v-256c0-26.511719-21.492188-48-48-48zm-192 400h-32v-48h32zm208-96c0 8.835938-7.164062 16-16 16h-416c-8.835938 0-16-7.164062-16-16v-256c0-8.835938 7.164062-16 16-16h416c8.835938 0 16 7.164062 16 16zm0 0" fill="url(#a)"/></svg>